<svg width="19" height="19" viewBox="0 0 19 19" fill="none" xmlns="http://www.w3.org/2000/svg">
<g clip-path="url(#clip0_5_2136)">
<path d="M10.6045 2.07161V1.28711C10.6045 0.872359 10.2692 0.537109 9.85449 0.537109C9.43974 0.537109 9.10449 0.872359 9.10449 1.28711V2.07161C4.90524 2.45186 1.60449 5.99111 1.60449 10.2871C1.60449 12.3406 2.35899 14.2216 3.60474 15.6669C2.97024 16.0036 2.35449 16.6546 2.35449 17.7871C2.35449 18.2019 2.68974 18.5371 3.10449 18.5371C3.51924 18.5371 3.85449 18.2019 3.85449 17.7871C3.85449 17.0371 4.49799 16.8916 4.68699 16.8654C4.73949 16.8594 4.79049 16.8481 4.83849 16.8324C6.22974 17.9004 7.96899 18.5371 9.85374 18.5371C11.7385 18.5371 13.48 17.9004 14.8712 16.8309C14.9162 16.8459 14.9635 16.8571 15.0122 16.8639C15.2102 16.8909 15.8537 17.0364 15.8537 17.7864C15.8537 18.2011 16.189 18.5364 16.6037 18.5364C17.0185 18.5364 17.3537 18.2011 17.3537 17.7864C17.3537 16.6539 16.738 16.0029 16.1035 15.6661C17.3492 14.2209 18.1037 12.3399 18.1037 10.2864C18.1037 5.99036 14.803 2.45111 10.6037 2.07086L10.6045 2.07161ZM3.10449 10.2871C3.10449 6.56486 6.13224 3.53711 9.85449 3.53711C13.5767 3.53711 16.6045 6.56486 16.6045 10.2871C16.6045 14.0094 13.5767 17.0371 9.85449 17.0371C6.13224 17.0371 3.10449 14.0094 3.10449 10.2871ZM18.8545 3.91211C18.8545 4.32686 18.5192 4.66211 18.1045 4.66211C17.6897 4.66211 17.3545 4.32686 17.3545 3.91211C17.3545 3.00311 16.6217 2.03711 15.2657 2.03711C14.851 2.03711 14.5157 1.70186 14.5157 1.28711C14.5157 0.872359 14.851 0.537109 15.2657 0.537109C17.2787 0.537109 18.8545 2.01986 18.8545 3.91211ZM1.60449 4.66211C1.18974 4.66211 0.854492 4.32686 0.854492 3.91211C0.854492 2.01986 2.43099 0.537109 4.44324 0.537109C4.85799 0.537109 5.19324 0.872359 5.19324 1.28711C5.19324 1.70186 4.85799 2.03711 4.44324 2.03711C3.08649 2.03711 2.35449 3.00311 2.35449 3.91211C2.35449 4.32686 2.01924 4.66211 1.60449 4.66211ZM10.6045 5.78711V11.0371C10.6045 11.4519 10.2692 11.7871 9.85449 11.7871C9.43974 11.7871 9.10449 11.4519 9.10449 11.0371V5.78711C9.10449 5.37236 9.43974 5.03711 9.85449 5.03711C10.2692 5.03711 10.6045 5.37236 10.6045 5.78711ZM10.9795 14.4121C10.9795 15.0331 10.4755 15.5371 9.85449 15.5371C9.23349 15.5371 8.72949 15.0331 8.72949 14.4121C8.72949 13.7911 9.23349 13.2871 9.85449 13.2871C10.4755 13.2871 10.9795 13.7911 10.9795 14.4121Z" fill="#9194A0"/>
</g>
<defs>
<clipPath id="clip0_5_2136">
<rect width="18" height="18" fill="white" transform="translate(0.854492 0.537109)"/>
</clipPath>
</defs>
</svg>
