<svg width="19" height="19" viewBox="0 0 19 19" fill="none" xmlns="http://www.w3.org/2000/svg">
<g clip-path="url(#clip0_5_2098)">
<path d="M18.307 7.69535C17.8795 7.20035 17.257 6.92285 16.6045 6.92285H16.537C16.162 3.55535 13.297 0.922852 9.83201 0.922852C6.36701 0.922852 3.49451 3.55535 3.11951 6.92285H3.08201C2.42951 6.92285 1.80701 7.20785 1.37951 7.69535C0.952013 8.19035 0.764513 8.84285 0.854513 9.48785L1.64951 15.0529C1.96451 17.2579 3.87701 18.9154 6.10451 18.9154H13.582C15.8095 18.9154 17.722 17.2579 18.037 15.0529L18.832 9.48785C18.922 8.84285 18.7345 8.19035 18.307 7.69535ZM9.83201 2.42285C12.472 2.42285 14.662 4.38035 15.0295 6.92285H4.63451C5.00201 4.38035 7.19201 2.42285 9.83201 2.42285ZM17.347 9.27785L16.552 14.8429C16.342 16.3129 15.067 17.4154 13.582 17.4154H6.10451C4.61951 17.4154 3.34451 16.3054 3.13451 14.8429L2.33951 9.27785C2.30951 9.06035 2.36951 8.85035 2.51201 8.67785C2.65451 8.51285 2.85701 8.41535 3.08201 8.41535H16.6045C16.822 8.41535 17.0245 8.50535 17.167 8.67035C17.3095 8.83535 17.377 9.05285 17.3395 9.27035L17.347 9.27785Z" fill="#9194A0"/>
</g>
<defs>
<clipPath id="clip0_5_2098">
<rect width="18" height="18" fill="white" transform="translate(0.854492 0.922852)"/>
</clipPath>
</defs>
</svg>
