<svg width="19" height="19" viewBox="0 0 19 19" fill="none" xmlns="http://www.w3.org/2000/svg">
<g clip-path="url(#clip0_5_2249)">
<path d="M9.4314 18.0271C4.46865 18.0271 0.431396 13.9899 0.431396 9.0271C0.431396 4.06435 4.46865 0.0270996 9.4314 0.0270996C14.3941 0.0270996 18.4314 4.06435 18.4314 9.0271C18.4314 13.9899 14.3941 18.0271 9.4314 18.0271ZM9.4314 1.5271C5.2959 1.5271 1.9314 4.8916 1.9314 9.0271C1.9314 13.1626 5.2959 16.5271 9.4314 16.5271C13.5669 16.5271 16.9314 13.1626 16.9314 9.0271C16.9314 4.8916 13.5669 1.5271 9.4314 1.5271ZM13.1814 9.0271C13.1814 8.61235 12.8461 8.2771 12.4314 8.2771H10.1814V4.5271C10.1814 4.11235 9.8454 3.7771 9.4314 3.7771C9.0174 3.7771 8.6814 4.11235 8.6814 4.5271V9.0271C8.6814 9.44185 9.0174 9.7771 9.4314 9.7771H12.4314C12.8461 9.7771 13.1814 9.44185 13.1814 9.0271Z" fill="#181C32"/>
</g>
<defs>
<clipPath id="clip0_5_2249">
<rect width="18" height="18" fill="white" transform="translate(0.431396 0.0270996)"/>
</clipPath>
</defs>
</svg>
