<svg width="19" height="19" viewBox="0 0 19 19" fill="none" xmlns="http://www.w3.org/2000/svg">
<g clip-path="url(#clip0_5_2106)">
<path d="M15.5057 3.14864L14.2637 1.90514C13.9162 1.55588 13.5029 1.279 13.0477 1.09053C12.5925 0.902056 12.1044 0.805737 11.6117 0.807144H6.85449C5.8603 0.808335 4.90716 1.20381 4.20416 1.90681C3.50115 2.60981 3.10568 3.56295 3.10449 4.55714V15.0571C3.10568 16.0513 3.50115 17.0045 4.20416 17.7075C4.90716 18.4105 5.8603 18.806 6.85449 18.8071H12.8545C13.8487 18.806 14.8018 18.4105 15.5048 17.7075C16.2078 17.0045 16.6033 16.0513 16.6045 15.0571V5.79989C16.6057 5.30728 16.5092 4.81932 16.3206 4.36424C16.132 3.90916 15.8551 3.49599 15.5057 3.14864ZM14.4452 4.20914C14.5516 4.31513 14.6469 4.43174 14.7295 4.55714H12.8545V2.68214C12.9797 2.76563 13.0965 2.86108 13.2032 2.96714L14.4452 4.20914ZM15.1045 15.0571C15.1045 15.6539 14.8674 16.2262 14.4455 16.6481C14.0235 17.0701 13.4512 17.3071 12.8545 17.3071H6.85449C6.25776 17.3071 5.68546 17.0701 5.2635 16.6481C4.84155 16.2262 4.60449 15.6539 4.60449 15.0571V4.55714C4.60449 3.96041 4.84155 3.38811 5.2635 2.96615C5.68546 2.5442 6.25776 2.30714 6.85449 2.30714H11.3545V4.55714C11.3545 4.95497 11.5125 5.3365 11.7938 5.6178C12.0751 5.89911 12.4567 6.05714 12.8545 6.05714H15.1045V15.0571ZM12.8545 7.55714C13.0534 7.55714 13.2442 7.63616 13.3848 7.77681C13.5255 7.91747 13.6045 8.10823 13.6045 8.30714C13.6045 8.50606 13.5255 8.69682 13.3848 8.83747C13.2442 8.97813 13.0534 9.05714 12.8545 9.05714H6.85449C6.65558 9.05714 6.46481 8.97813 6.32416 8.83747C6.18351 8.69682 6.10449 8.50606 6.10449 8.30714C6.10449 8.10823 6.18351 7.91747 6.32416 7.77681C6.46481 7.63616 6.65558 7.55714 6.85449 7.55714H12.8545ZM13.6045 11.3071C13.6045 11.5061 13.5255 11.6968 13.3848 11.8375C13.2442 11.9781 13.0534 12.0571 12.8545 12.0571H6.85449C6.65558 12.0571 6.46481 11.9781 6.32416 11.8375C6.18351 11.6968 6.10449 11.5061 6.10449 11.3071C6.10449 11.1082 6.18351 10.9175 6.32416 10.7768C6.46481 10.6362 6.65558 10.5571 6.85449 10.5571H12.8545C13.0534 10.5571 13.2442 10.6362 13.3848 10.7768C13.5255 10.9175 13.6045 11.1082 13.6045 11.3071ZM13.4605 13.8669C13.5771 14.0273 13.6254 14.2273 13.5949 14.4232C13.5644 14.6192 13.4576 14.795 13.2977 14.9124C12.5378 15.4539 11.6378 15.7645 10.7057 15.8071C10.1612 15.8045 9.63311 15.6197 9.20574 15.2821C8.95974 15.1134 8.86599 15.0571 8.68074 15.0571C8.17931 15.1347 7.7062 15.3398 7.30674 15.6526C7.1483 15.7656 6.95217 15.8125 6.75976 15.7836C6.56735 15.7546 6.39373 15.652 6.27556 15.4974C6.15738 15.3429 6.10391 15.1484 6.12643 14.9551C6.14895 14.7619 6.24569 14.5849 6.39624 14.4616C7.05713 13.9486 7.8507 13.6348 8.68374 13.5571C9.18334 13.5651 9.66633 13.7378 10.0577 14.0484C10.2362 14.2089 10.4659 14.3006 10.7057 14.3071C11.319 14.2612 11.9087 14.0517 12.4135 13.7004C12.5744 13.5837 12.7751 13.5357 12.9715 13.567C13.1678 13.5982 13.3437 13.7061 13.4605 13.8669Z" fill="#9194A0"/>
</g>
<defs>
<clipPath id="clip0_5_2106">
<rect width="18" height="18" fill="white" transform="translate(0.854492 0.807129)"/>
</clipPath>
</defs>
</svg>
