<svg width="19" height="19" viewBox="0 0 19 19" fill="none" xmlns="http://www.w3.org/2000/svg">
<path d="M18.0119 12.1767L16.0619 5.14849C15.6455 3.64505 14.7382 2.3241 13.4844 1.39586C12.2306 0.467615 10.7023 -0.0145666 9.14279 0.0260532C7.58328 0.0666729 6.08218 0.62776 4.87837 1.62001C3.67457 2.61227 2.83725 3.97867 2.49969 5.50174L0.991436 12.2892C0.918455 12.6181 0.920235 12.9591 0.996645 13.2871C1.07305 13.6152 1.22214 13.9219 1.43291 14.1846C1.64368 14.4474 1.91075 14.6595 2.21442 14.8052C2.51809 14.951 2.8506 15.0267 3.18744 15.0267H5.89269C6.06482 15.8745 6.52473 16.6366 7.19449 17.184C7.86425 17.7315 8.70267 18.0305 9.56769 18.0305C10.4327 18.0305 11.2711 17.7315 11.9409 17.184C12.6106 16.6366 13.0706 15.8745 13.2427 15.0267H15.8452C16.1918 15.0266 16.5336 14.9464 16.8441 14.7923C17.1546 14.6383 17.4253 14.4146 17.6351 14.1388C17.8449 13.8629 17.9881 13.5423 18.0536 13.202C18.1191 12.8616 18.1044 12.5108 18.0119 12.1767ZM9.56769 16.5267C9.10399 16.5248 8.65221 16.3797 8.27416 16.1112C7.89611 15.8427 7.61025 15.4639 7.45569 15.0267H11.6797C11.5251 15.4639 11.2393 15.8427 10.8612 16.1112C10.4832 16.3797 10.0314 16.5248 9.56769 16.5267ZM16.4414 13.2305C16.3715 13.3233 16.2808 13.3984 16.1766 13.4498C16.0724 13.5012 15.9576 13.5276 15.8414 13.5267H3.18744C3.07513 13.5267 2.96427 13.5015 2.86302 13.4529C2.76178 13.4043 2.67274 13.3336 2.60248 13.246C2.53221 13.1584 2.48253 13.0561 2.45708 12.9467C2.43163 12.8373 2.43107 12.7236 2.45544 12.614L3.96369 5.82649C4.22945 4.63115 4.88717 3.55894 5.83228 2.78033C6.77739 2.00171 7.95565 1.56137 9.17977 1.5293C10.4039 1.49723 11.6036 1.87528 12.5882 2.60334C13.5727 3.33141 14.2857 4.3677 14.6137 5.54749L16.5637 12.5757C16.5955 12.6869 16.6011 12.8039 16.5798 12.9175C16.5586 13.0312 16.5112 13.1383 16.4414 13.2305Z" fill="#181C32"/>
</svg>
