<svg width="38" height="38" viewBox="0 0 38 38" fill="none" xmlns="http://www.w3.org/2000/svg">
<circle cx="19.1472" cy="19.0271" r="18.2791" fill="#00A3FF"/>
<g clip-path="url(#clip0_5_2583)">
<path d="M13.8139 11.0271H15.8139C17.2866 11.0271 18.4805 12.221 18.4805 13.6938V15.6938C18.4805 17.1665 17.2866 18.3604 15.8139 18.3604H13.8139C12.3411 18.3604 11.1472 17.1665 11.1472 15.6938V13.6938C11.1472 12.221 12.3411 11.0271 13.8139 11.0271Z" fill="white"/>
<path d="M13.8139 19.6938H15.8139C17.2866 19.6938 18.4805 20.8878 18.4805 22.3605V24.3605C18.4805 25.8333 17.2866 27.0272 15.8139 27.0272H13.8139C12.3411 27.0272 11.1472 25.8333 11.1472 24.3605V22.3605C11.1472 20.8878 12.3411 19.6938 13.8139 19.6938Z" fill="white"/>
<path d="M22.4806 19.6938H24.4806C25.9533 19.6938 27.1472 20.8878 27.1472 22.3605V24.3605C27.1472 25.8333 25.9533 27.0272 24.4806 27.0272H22.4806C21.0078 27.0272 19.8139 25.8333 19.8139 24.3605V22.3605C19.8139 20.8878 21.0078 19.6938 22.4806 19.6938Z" fill="white"/>
<path d="M20.4806 15.6938H22.4806V17.6938C22.4806 18.062 22.779 18.3605 23.1472 18.3605C23.5154 18.3605 23.8139 18.062 23.8139 17.6938V15.6938H25.8139C26.1821 15.6938 26.4805 15.3953 26.4805 15.0272C26.4805 14.659 26.1821 14.3605 25.8139 14.3605H23.8139V12.3605C23.8139 11.9923 23.5154 11.6938 23.1472 11.6938C22.779 11.6938 22.4806 11.9923 22.4806 12.3605V14.3605H20.4806C20.1124 14.3605 19.8139 14.659 19.8139 15.0272C19.8139 15.3953 20.1124 15.6938 20.4806 15.6938Z" fill="white"/>
</g>
<defs>
<clipPath id="clip0_5_2583">
<rect width="16" height="16" fill="white" transform="translate(11.1472 11.0271)"/>
</clipPath>
</defs>
</svg>
