<svg width="19" height="20" viewBox="0 0 19 20" fill="none" xmlns="http://www.w3.org/2000/svg">
<path d="M18.1045 17.6859H3.10449C2.90558 17.6859 2.71481 17.6033 2.57416 17.4561C2.43351 17.309 2.35449 17.1094 2.35449 16.9014V1.20963C2.35449 1.00155 2.27547 0.801987 2.13482 0.654849C1.99417 0.50771 1.8034 0.425049 1.60449 0.425049C1.40558 0.425049 1.21481 0.50771 1.07416 0.654849C0.93351 0.801987 0.854492 1.00155 0.854492 1.20963L0.854492 16.9014C0.854492 17.5256 1.09155 18.1243 1.5135 18.5657C1.93546 19.0071 2.50776 19.2551 3.10449 19.2551H18.1045C18.3034 19.2551 18.4942 19.1725 18.6348 19.0253C18.7755 18.8782 18.8545 18.6786 18.8545 18.4705C18.8545 18.2624 18.7755 18.0629 18.6348 17.9157C18.4942 17.7686 18.3034 17.6859 18.1045 17.6859Z" fill="#00A3FF"/>
<path d="M12.3134 15.9013C12.5357 15.9013 12.749 15.813 12.9062 15.6558C13.0635 15.4985 13.1518 15.2852 13.1518 15.0629V9.19368C13.1518 8.97131 13.0635 8.75804 12.9062 8.6008C12.749 8.44356 12.5357 8.35522 12.3134 8.35522C12.091 8.35522 11.8777 8.44356 11.7205 8.6008C11.5633 8.75804 11.4749 8.97131 11.4749 9.19368V15.0629C11.4749 15.2852 11.5633 15.4985 11.7205 15.6558C11.8777 15.813 12.091 15.9013 12.3134 15.9013Z" fill="#00A3FF"/>
<path d="M5.60573 15.9013C5.8281 15.9013 6.04137 15.813 6.19861 15.6558C6.35585 15.4985 6.44419 15.2852 6.44419 15.0629V9.19368C6.44419 8.97131 6.35585 8.75804 6.19861 8.6008C6.04137 8.44356 5.8281 8.35522 5.60573 8.35522C5.38336 8.35522 5.17009 8.44356 5.01285 8.6008C4.85561 8.75804 4.76727 8.97131 4.76727 9.19368V15.0629C4.76727 15.2852 4.85561 15.4985 5.01285 15.6558C5.17009 15.813 5.38336 15.9013 5.60573 15.9013Z" fill="#00A3FF"/>
<path d="M15.6673 15.9012C15.8896 15.9012 16.1029 15.8129 16.2601 15.6557C16.4174 15.4984 16.5057 15.2851 16.5057 15.0628V5.0013C16.5057 4.77893 16.4174 4.56566 16.2601 4.40842C16.1029 4.25118 15.8896 4.16284 15.6673 4.16284C15.4449 4.16284 15.2316 4.25118 15.0744 4.40842C14.9171 4.56566 14.8288 4.77893 14.8288 5.0013V15.0628C14.8288 15.2851 14.9171 15.4984 15.0744 15.6557C15.2316 15.8129 15.4449 15.9012 15.6673 15.9012Z" fill="#00A3FF"/>
<path d="M8.95955 15.9012C9.18192 15.9012 9.39519 15.8129 9.55243 15.6557C9.70967 15.4984 9.79801 15.2851 9.79801 15.0628V5.0013C9.79801 4.77893 9.70967 4.56566 9.55243 4.40842C9.39519 4.25118 9.18192 4.16284 8.95955 4.16284C8.73718 4.16284 8.52391 4.25118 8.36667 4.40842C8.20943 4.56566 8.12109 4.77893 8.12109 5.0013V15.0628C8.12109 15.2851 8.20943 15.4984 8.36667 15.6557C8.52391 15.8129 8.73718 15.9012 8.95955 15.9012Z" fill="#00A3FF"/>
</svg>
