<svg width="18" height="16" viewBox="0 0 18 16" fill="none" xmlns="http://www.w3.org/2000/svg">
<path d="M11.1666 14.0315C8.69597 14.0315 6.75479 12.0904 6.75479 9.61977C6.75479 7.14918 8.69597 5.20801 11.1666 5.20801C13.6371 5.20801 15.5783 7.14918 15.5783 9.61977C15.5783 12.0904 13.6371 14.0315 11.1666 14.0315ZM11.1666 6.97271C9.66656 6.97271 8.5195 8.11977 8.5195 9.61977C8.5195 11.1198 9.66656 12.2668 11.1666 12.2668C12.6666 12.2668 13.8136 11.1198 13.8136 9.61977C13.8136 8.11977 12.6666 6.97271 11.1666 6.97271Z" fill="#00A3FF"/>
<path d="M16.4607 15.796C16.196 15.796 16.0195 15.7078 15.843 15.5313L13.6371 13.3254C13.2842 12.9725 13.2842 12.4431 13.6371 12.0901C13.9901 11.7372 14.5195 11.7372 14.8724 12.0901L17.0783 14.296C17.4313 14.649 17.4313 15.1784 17.0783 15.5313C16.9018 15.7078 16.7254 15.796 16.4607 15.796Z" fill="#00A3FF"/>
<path d="M15.5783 2.56085H1.46066C0.931249 2.56085 0.578308 2.20791 0.578308 1.6785C0.578308 1.14908 0.931249 0.796143 1.46066 0.796143H15.5783C16.1077 0.796143 16.4607 1.14908 16.4607 1.6785C16.4607 2.20791 16.1077 2.56085 15.5783 2.56085Z" fill="#00A3FF"/>
<path d="M4.99007 7.85504H1.46066C0.931249 7.85504 0.578308 7.5021 0.578308 6.97268C0.578308 6.44327 0.931249 6.09033 1.46066 6.09033H4.99007C5.51948 6.09033 5.87243 6.44327 5.87243 6.97268C5.87243 7.5021 5.51948 7.85504 4.99007 7.85504Z" fill="#00A3FF"/>
<path d="M4.99007 13.149H1.46066C0.931249 13.149 0.578308 12.796 0.578308 12.2666C0.578308 11.7372 0.931249 11.3843 1.46066 11.3843H4.99007C5.51948 11.3843 5.87243 11.7372 5.87243 12.2666C5.87243 12.796 5.51948 13.149 4.99007 13.149Z" fill="#00A3FF"/>
</svg>
