<svg width="19" height="19" viewBox="0 0 19 19" fill="none" xmlns="http://www.w3.org/2000/svg">
<path d="M10.6047 6.1594C12.3597 6.4369 12.8547 7.6594 12.8547 8.3269C12.8547 8.52581 12.7757 8.71658 12.6351 8.85723C12.4944 8.99788 12.3036 9.0769 12.1047 9.0769C11.9058 9.0769 11.7151 8.99788 11.5744 8.85723C11.4337 8.71658 11.3547 8.52581 11.3547 8.3269C11.3547 8.1919 11.2197 7.5769 9.85473 7.5769C8.48973 7.5769 8.35473 8.1919 8.35473 8.3269C8.35473 8.4619 8.47473 9.0769 9.85473 9.0769C12.2247 9.0769 12.8547 10.5769 12.8547 11.3269C12.8547 12.0769 12.3597 13.2394 10.6047 13.5169V14.3269C10.6047 14.5258 10.5257 14.7166 10.3851 14.8572C10.2444 14.9979 10.0536 15.0769 9.85473 15.0769C9.65582 15.0769 9.46505 14.9979 9.3244 14.8572C9.18375 14.7166 9.10473 14.5258 9.10473 14.3269V13.5169C8.75158 13.4808 8.40916 13.3747 8.09752 13.2047C7.78588 13.0347 7.51126 12.8043 7.28973 12.5269C7.02374 12.1817 6.87171 11.7623 6.85473 11.3269C6.85473 11.128 6.93375 10.9372 7.0744 10.7966C7.21505 10.6559 7.40582 10.5769 7.60473 10.5769C7.80364 10.5769 7.99441 10.6559 8.13506 10.7966C8.27571 10.9372 8.35473 11.128 8.35473 11.3269C8.35473 11.4319 8.47473 12.0769 9.85473 12.0769C11.3547 12.0769 11.3547 11.3269 11.3547 11.3269C11.3547 11.3269 11.2347 10.5769 9.85473 10.5769C7.48473 10.5769 6.85473 9.0769 6.85473 8.3269C6.85473 7.5769 7.34973 6.4369 9.10473 6.1594V5.3269C9.10473 5.12799 9.18375 4.93722 9.3244 4.79657C9.46505 4.65592 9.65582 4.5769 9.85473 4.5769C10.0536 4.5769 10.2444 4.65592 10.3851 4.79657C10.5257 4.93722 10.6047 5.12799 10.6047 5.3269V6.1594ZM13.6047 6.0769C13.7034 6.07747 13.8013 6.05855 13.8927 6.02123C13.984 5.98391 14.0671 5.92891 14.1372 5.8594L16.6047 3.3844V4.5769C16.6047 4.77581 16.6837 4.96658 16.8244 5.10723C16.965 5.24788 17.1558 5.3269 17.3547 5.3269C17.5536 5.3269 17.7444 5.24788 17.8851 5.10723C18.0257 4.96658 18.1047 4.77581 18.1047 4.5769V1.5769C18.1035 1.4789 18.0832 1.38207 18.0447 1.2919C17.9686 1.10864 17.823 0.96301 17.6397 0.886904C17.5496 0.848473 17.4527 0.828089 17.3547 0.826904H14.3547C14.1558 0.826904 13.9651 0.905922 13.8244 1.04657C13.6837 1.18723 13.6047 1.37799 13.6047 1.5769C13.6047 1.77582 13.6837 1.96658 13.8244 2.10723C13.9651 2.24789 14.1558 2.3269 14.3547 2.3269H15.5472L13.0722 4.7944C13.0019 4.86412 12.9461 4.94708 12.9081 5.03847C12.87 5.12986 12.8504 5.22789 12.8504 5.3269C12.8504 5.42591 12.87 5.52394 12.9081 5.61533C12.9461 5.70673 13.0019 5.78968 13.0722 5.8594C13.1423 5.92891 13.2254 5.98391 13.3168 6.02123C13.4082 6.05855 13.506 6.07747 13.6047 6.0769ZM18.7047 8.1919C18.6689 7.99299 18.5556 7.81645 18.3896 7.70111C18.2236 7.58578 18.0186 7.5411 17.8197 7.5769C17.6208 7.61271 17.4443 7.72606 17.3289 7.89203C17.2136 8.058 17.1689 8.26299 17.2047 8.4619C17.4855 9.97905 17.2916 11.5459 16.6493 12.9488C16.0071 14.3517 14.9478 15.5223 13.6159 16.3012C12.284 17.08 10.7443 17.4291 9.20668 17.3009C7.66911 17.1727 6.20849 16.5734 5.02398 15.5847C3.83947 14.596 2.98872 13.266 2.58772 11.7761C2.18672 10.2862 2.25498 8.70889 2.7832 7.25921C3.31142 5.80953 4.2739 4.55804 5.53939 3.67537C6.80489 2.7927 8.31182 2.32181 9.85473 2.3269C10.0821 2.3155 10.3099 2.3155 10.5372 2.3269C10.7305 2.34616 10.9237 2.2897 11.0762 2.1694C11.2286 2.0491 11.3285 1.87434 11.3547 1.6819C11.364 1.58334 11.3537 1.48391 11.3243 1.38935C11.295 1.2948 11.2472 1.20699 11.1838 1.13099C11.1203 1.05499 11.0424 0.99231 10.9546 0.946555C10.8669 0.900799 10.7709 0.872879 10.6722 0.864404C10.4022 0.864404 10.1322 0.864404 9.85473 0.864404C8.00462 0.864355 6.19944 1.43449 4.68497 2.49718C3.1705 3.55986 2.02034 5.06347 1.39107 6.80328C0.7618 8.5431 0.684006 10.4346 1.16828 12.2202C1.65255 14.0058 2.67536 15.5988 4.09745 16.7822C5.51953 17.9657 7.2718 18.6821 9.11567 18.834C10.9595 18.9859 12.8054 18.5658 14.402 17.631C15.9986 16.6962 17.2682 15.292 18.0382 13.6097C18.8081 11.9274 19.0408 10.0487 18.7047 8.2294V8.1919Z" fill="#9194A0"/>
</svg>
