<svg width="19" height="19" viewBox="0 0 19 19" fill="none" xmlns="http://www.w3.org/2000/svg">
<g clip-path="url(#clip0_5_2128)">
<path d="M16.7207 15.4781C18.0981 13.8572 18.8544 11.7994 18.8544 9.67232C18.8544 7.54523 18.0981 5.48743 16.7207 3.86657L17.3657 3.22157C17.5063 3.08083 17.5853 2.89 17.5852 2.69105C17.5851 2.4921 17.506 2.30132 17.3653 2.16069C17.2246 2.02006 17.0338 1.94109 16.8348 1.94116C16.6359 1.94123 16.4451 2.02034 16.3044 2.16107L15.6594 2.80607C14.0386 1.42864 11.9808 0.672363 9.85369 0.672363C7.72661 0.672363 5.66881 1.42864 4.04794 2.80607L3.40294 2.16107C3.2614 2.02454 3.07189 1.94908 2.87524 1.95093C2.67859 1.95277 2.49054 2.03178 2.35158 2.17094C2.21262 2.31009 2.13388 2.49826 2.13231 2.69491C2.13074 2.89156 2.20647 3.08096 2.34319 3.22232L2.98819 3.86732C1.61077 5.48818 0.854492 7.54598 0.854492 9.67307C0.854492 11.8002 1.61077 13.858 2.98819 15.4788L2.34319 16.1238C2.27161 16.1931 2.21454 16.2759 2.1753 16.3674C2.13605 16.4589 2.11544 16.5573 2.11464 16.6569C2.11385 16.7565 2.13289 16.8553 2.17067 16.9474C2.20845 17.0395 2.26419 17.1232 2.33466 17.1936C2.40513 17.264 2.48891 17.3196 2.58111 17.3573C2.6733 17.3949 2.77208 17.4138 2.87166 17.4129C2.97124 17.4119 3.06964 17.3912 3.16112 17.3518C3.25259 17.3124 3.33531 17.2552 3.40444 17.1836L4.04944 16.5386C5.67031 17.916 7.72811 18.6723 9.85519 18.6723C11.9823 18.6723 14.0401 17.916 15.6609 16.5386L16.3059 17.1836C16.4475 17.3201 16.637 17.3956 16.8336 17.3937C17.0303 17.3919 17.2183 17.3128 17.3573 17.1737C17.4963 17.0345 17.575 16.8464 17.5766 16.6497C17.5781 16.4531 17.5024 16.2637 17.3657 16.1223L16.7207 15.4781ZM17.3544 9.67232C17.3558 11.4022 16.7561 13.0788 15.6579 14.4153L12.9797 11.7371C13.387 11.1255 13.6044 10.4071 13.6044 9.67232C13.6044 8.93751 13.387 8.21912 12.9797 7.60757L15.6579 4.92932C16.7561 6.26587 17.3558 7.94246 17.3544 9.67232ZM7.60444 9.67232C7.60444 9.22731 7.7364 8.79229 7.98364 8.42228C8.23087 8.05227 8.58227 7.76388 8.99341 7.59359C9.40454 7.42329 9.85694 7.37873 10.2934 7.46555C10.7299 7.55237 11.1308 7.76666 11.4454 8.08133C11.7601 8.39599 11.9744 8.7969 12.0612 9.23336C12.148 9.66982 12.1035 10.1222 11.9332 10.5334C11.7629 10.9445 11.4745 11.2959 11.1045 11.5431C10.7345 11.7904 10.2995 11.9223 9.85444 11.9223C9.25771 11.9223 8.68541 11.6853 8.26345 11.2633C7.8415 10.8413 7.60444 10.2691 7.60444 9.67232ZM9.85444 2.17232C11.5843 2.17094 13.2609 2.77063 14.5974 3.86882L11.9192 6.54707C11.3076 6.13971 10.5892 5.92236 9.85444 5.92236C9.11964 5.92236 8.40125 6.13971 7.78969 6.54707L5.11144 3.86882C6.448 2.77063 8.12459 2.17094 9.85444 2.17232ZM2.35444 9.67232C2.35307 7.94246 2.95276 6.26587 4.05094 4.92932L6.72919 7.60757C6.32184 8.21912 6.10449 8.93751 6.10449 9.67232C6.10449 10.4071 6.32184 11.1255 6.72919 11.7371L4.05094 14.4153C2.95276 13.0788 2.35307 11.4022 2.35444 9.67232ZM9.85444 17.1723C8.12459 17.1737 6.448 16.574 5.11144 15.4758L7.78969 12.7976C8.40125 13.2049 9.11964 13.4223 9.85444 13.4223C10.5892 13.4223 11.3076 13.2049 11.9192 12.7976L14.5974 15.4758C13.2609 16.574 11.5843 17.1737 9.85444 17.1723Z" fill="#9194A0"/>
</g>
<defs>
<clipPath id="clip0_5_2128">
<rect width="18" height="18" fill="white" transform="translate(0.854492 0.672363)"/>
</clipPath>
</defs>
</svg>
