<svg width="19" height="19" viewBox="0 0 19 19" fill="none" xmlns="http://www.w3.org/2000/svg">
<g clip-path="url(#clip0_5_2130)">
<path d="M13.6045 0.152832H6.10449C4.03674 0.152832 2.35449 1.83508 2.35449 3.90283V14.4028C2.35449 16.4706 4.03674 18.1528 6.10449 18.1528H13.6045C15.6722 18.1528 17.3545 16.4706 17.3545 14.4028V3.90283C17.3545 1.83508 15.6722 0.152832 13.6045 0.152832ZM15.8545 14.4028C15.8545 15.6433 14.845 16.6528 13.6045 16.6528H6.10449C4.86399 16.6528 3.85449 15.6433 3.85449 14.4028V3.90283C3.85449 2.66233 4.86399 1.65283 6.10449 1.65283H13.6045C14.845 1.65283 15.8545 2.66233 15.8545 3.90283V14.4028ZM12.1045 3.15283H7.60449C6.77724 3.15283 6.10449 3.82558 6.10449 4.65283V13.6528C6.10449 14.4801 6.77724 15.1528 7.60449 15.1528H12.1045C12.9317 15.1528 13.6045 14.4801 13.6045 13.6528V4.65283C13.6045 3.82558 12.9317 3.15283 12.1045 3.15283ZM12.1045 4.65283V8.40283H7.60449V4.65283H12.1045ZM7.60449 13.6528V9.90283H12.1052V13.6528H7.60449Z" fill="#9194A0"/>
</g>
<defs>
<clipPath id="clip0_5_2130">
<rect width="18" height="18" fill="white" transform="translate(0.854492 0.152832)"/>
</clipPath>
</defs>
</svg>
