<svg width="19" height="18" viewBox="0 0 19 18" fill="none" xmlns="http://www.w3.org/2000/svg">
<g clip-path="url(#clip0_5_2141)">
<path d="M9.10449 0.75H4.22949C2.36874 0.75 0.854492 2.26425 0.854492 4.125V6.75C0.854492 7.57725 1.52724 8.25 2.35449 8.25H9.10449C9.93174 8.25 10.6045 7.57725 10.6045 6.75V2.25C10.6045 1.42275 9.93174 0.75 9.10449 0.75ZM2.35449 6.75V4.125C2.35449 3.09075 3.19599 2.25 4.22949 2.25H9.10449V6.75H2.35449ZM15.4795 2.25H13.6045C12.7772 2.25 12.1045 2.92275 12.1045 3.75V13.5C12.1045 14.3273 12.7772 15 13.6045 15H15.4795C17.3402 15 18.8545 13.4858 18.8545 11.625V5.625C18.8545 3.76425 17.3402 2.25 15.4795 2.25ZM17.3545 11.625C17.3545 12.6593 16.513 13.5 15.4795 13.5H13.6045V3.75H15.4795C16.513 3.75 17.3545 4.59075 17.3545 5.625V11.625ZM9.10449 9.75H3.85449C3.02724 9.75 2.35449 10.4227 2.35449 11.25V13.875C2.35449 15.7358 3.86874 17.25 5.72949 17.25H9.10449C9.93174 17.25 10.6045 16.5773 10.6045 15.75V11.25C10.6045 10.4227 9.93174 9.75 9.10449 9.75ZM9.10449 15.75H5.72949C4.69599 15.75 3.85449 14.9093 3.85449 13.875V11.25H9.10449V15.75Z" fill="#9194A0"/>
</g>
<defs>
<clipPath id="clip0_5_2141">
<rect width="18" height="18" fill="white" transform="translate(0.854492)"/>
</clipPath>
</defs>
</svg>
