<svg width="19" height="19" viewBox="0 0 19 19" fill="none" xmlns="http://www.w3.org/2000/svg">
<g clip-path="url(#clip0_5_2132)">
<path d="M12.8545 5.11426C13.0534 5.11426 13.2442 5.19328 13.3848 5.33393C13.5255 5.47458 13.6045 5.66535 13.6045 5.86426C13.6045 6.06317 13.5255 6.25394 13.3848 6.39459C13.2442 6.53524 13.0534 6.61426 12.8545 6.61426H6.85449C6.65558 6.61426 6.46481 6.53524 6.32416 6.39459C6.18351 6.25394 6.10449 6.06317 6.10449 5.86426C6.10449 5.66535 6.18351 5.47458 6.32416 5.33393C6.46481 5.19328 6.65558 5.11426 6.85449 5.11426H12.8545ZM18.6347 18.3945C18.4941 18.5351 18.3034 18.6141 18.1045 18.6141C17.9056 18.6141 17.7149 18.5351 17.5742 18.3945L15.769 16.5893C15.2344 16.9305 14.6137 17.1126 13.9795 17.1143C13.312 17.1143 12.6595 16.9163 12.1044 16.5455C11.5494 16.1746 11.1168 15.6475 10.8614 15.0308C10.606 14.4141 10.5391 13.7355 10.6693 13.0808C10.7996 12.4261 11.121 11.8248 11.593 11.3528C12.065 10.8808 12.6664 10.5593 13.3211 10.4291C13.9757 10.2989 14.6543 10.3657 15.271 10.6212C15.8877 10.8766 16.4149 11.3092 16.7857 11.8642C17.1566 12.4192 17.3545 13.0717 17.3545 13.7393C17.3528 14.3735 17.1707 14.9941 16.8295 15.5288L18.6347 17.334C18.7753 17.4747 18.8543 17.6654 18.8543 17.8643C18.8543 18.0631 18.7753 18.2539 18.6347 18.3945ZM13.9795 15.6143C14.3503 15.6143 14.7128 15.5043 15.0212 15.2983C15.3295 15.0922 15.5699 14.7994 15.7118 14.4568C15.8537 14.1142 15.8908 13.7372 15.8185 13.3735C15.7461 13.0097 15.5675 12.6757 15.3053 12.4134C15.0431 12.1512 14.709 11.9726 14.3453 11.9003C13.9816 11.8279 13.6046 11.8651 13.262 12.007C12.9193 12.1489 12.6265 12.3892 12.4205 12.6976C12.2145 13.0059 12.1045 13.3684 12.1045 13.7393C12.1045 14.2365 12.302 14.7135 12.6537 15.0651C13.0053 15.4167 13.4822 15.6143 13.9795 15.6143ZM10.6045 17.1143H6.10449C5.50776 17.1143 4.93546 16.8772 4.5135 16.4552C4.09155 16.0333 3.85449 15.461 3.85449 14.8643V4.36426C3.85449 3.76752 4.09155 3.19522 4.5135 2.77327C4.93546 2.35131 5.50776 2.11426 6.10449 2.11426H15.1045C15.3034 2.11426 15.4942 2.19328 15.6348 2.33393C15.7755 2.47458 15.8545 2.66535 15.8545 2.86426V8.86426C15.8545 9.06317 15.9335 9.25394 16.0742 9.39459C16.2148 9.53524 16.4056 9.61426 16.6045 9.61426C16.8034 9.61426 16.9942 9.53524 17.1348 9.39459C17.2755 9.25394 17.3545 9.06317 17.3545 8.86426V2.86426C17.3545 2.26752 17.1174 1.69522 16.6955 1.27327C16.2735 0.851311 15.7012 0.614258 15.1045 0.614258L6.10449 0.614258C5.1103 0.615449 4.15716 1.01092 3.45416 1.71392C2.75115 2.41693 2.35568 3.37006 2.35449 4.36426V14.8643C2.35568 15.8585 2.75115 16.8116 3.45416 17.5146C4.15716 18.2176 5.1103 18.6131 6.10449 18.6143H10.6045C10.8034 18.6143 10.9942 18.5352 11.1348 18.3946C11.2755 18.2539 11.3545 18.0632 11.3545 17.8643C11.3545 17.6653 11.2755 17.4746 11.1348 17.3339C10.9942 17.1933 10.8034 17.1143 10.6045 17.1143Z" fill="#9194A0"/>
</g>
<defs>
<clipPath id="clip0_5_2132">
<rect width="18" height="18" fill="white" transform="translate(0.854492 0.614258)"/>
</clipPath>
</defs>
</svg>
