<svg width="19" height="19" viewBox="0 0 19 19" fill="none" xmlns="http://www.w3.org/2000/svg">
<g clip-path="url(#clip0_5_2138)">
<path d="M9.85449 6.49854C9.26115 6.49854 8.68113 6.67448 8.18778 7.00413C7.69444 7.33377 7.30992 7.80231 7.08285 8.35048C6.85579 8.89866 6.79638 9.50186 6.91214 10.0838C7.02789 10.6657 7.31362 11.2003 7.73317 11.6199C8.15273 12.0394 8.68728 12.3251 9.26922 12.4409C9.85117 12.5566 10.4544 12.4972 11.0025 12.2702C11.5507 12.0431 12.0193 11.6586 12.3489 11.1652C12.6785 10.6719 12.8545 10.0919 12.8545 9.49854C12.8545 8.70289 12.5384 7.93982 11.9758 7.37721C11.4132 6.81461 10.6501 6.49854 9.85449 6.49854ZM9.85449 10.9985C9.55782 10.9985 9.26781 10.9106 9.02114 10.7457C8.77447 10.5809 8.58221 10.3466 8.46867 10.0726C8.35514 9.79847 8.32544 9.49687 8.38332 9.2059C8.44119 8.91493 8.58406 8.64765 8.79383 8.43788C9.00361 8.2281 9.27089 8.08523 9.56186 8.02736C9.85283 7.96948 10.1544 7.99918 10.4285 8.11272C10.7026 8.22625 10.9369 8.41851 11.1017 8.66518C11.2665 8.91185 11.3545 9.20186 11.3545 9.49854C11.3545 9.89636 11.1965 10.2779 10.9152 10.5592C10.6338 10.8405 10.2523 10.9985 9.85449 10.9985Z" fill="#9194A0"/>
<path d="M16.825 10.9235L16.492 10.7315C16.6419 9.91587 16.6419 9.0797 16.492 8.26404L16.825 8.07203C17.081 7.9243 17.3055 7.72757 17.4856 7.49308C17.6656 7.25859 17.7977 6.99094 17.8743 6.7054C17.9509 6.41986 17.9705 6.12203 17.932 5.8289C17.8936 5.53578 17.7977 5.25311 17.65 4.99704C17.5022 4.74096 17.3055 4.51649 17.071 4.33644C16.8365 4.15639 16.5689 4.02429 16.2833 3.94768C15.9978 3.87107 15.7 3.85146 15.4068 3.88995C15.1137 3.92845 14.831 4.0243 14.575 4.17203L14.2412 4.36479C13.6109 3.82622 12.8865 3.40872 12.1045 3.13329V2.74854C12.1045 2.1518 11.8674 1.5795 11.4455 1.15754C11.0235 0.735588 10.4512 0.498535 9.85446 0.498535C9.25773 0.498535 8.68543 0.735588 8.26347 1.15754C7.84152 1.5795 7.60446 2.1518 7.60446 2.74854V3.13329C6.8225 3.40971 6.09835 3.82824 5.46846 4.36778L5.13321 4.17354C4.61604 3.87517 4.00152 3.79446 3.42485 3.94918C2.84818 4.1039 2.35658 4.48136 2.05821 4.99854C1.75984 5.51571 1.67914 6.13022 1.83386 6.7069C1.98858 7.28357 2.36604 7.77517 2.88321 8.07354L3.21621 8.26554C3.0663 9.0812 3.0663 9.91737 3.21621 10.733L2.88321 10.925C2.36604 11.2234 1.98858 11.715 1.83386 12.2917C1.67914 12.8683 1.75984 13.4829 2.05821 14C2.35658 14.5172 2.84818 14.8947 3.42485 15.0494C4.00152 15.2041 4.61604 15.1234 5.13321 14.825L5.46696 14.6323C6.09754 15.1709 6.8222 15.5884 7.60446 15.8638V16.2485C7.60446 16.8453 7.84152 17.4176 8.26347 17.8395C8.68543 18.2615 9.25773 18.4985 9.85446 18.4985C10.4512 18.4985 11.0235 18.2615 11.4455 17.8395C11.8674 17.4176 12.1045 16.8453 12.1045 16.2485V15.8638C12.8864 15.5874 13.6106 15.1688 14.2405 14.6293L14.5757 14.8228C15.0929 15.1212 15.7074 15.2019 16.2841 15.0471C16.8608 14.8924 17.3523 14.515 17.6507 13.9978C17.9491 13.4806 18.0298 12.8661 17.8751 12.2894C17.7203 11.7127 17.3429 11.2212 16.8257 10.9228L16.825 10.9235ZM14.914 8.09153C15.1679 9.01183 15.1679 9.98374 14.914 10.904C14.8696 11.0642 14.8797 11.2346 14.9427 11.3884C15.0057 11.5422 15.118 11.6707 15.262 11.7538L16.075 12.2233C16.2473 12.3227 16.3731 12.4866 16.4247 12.6788C16.4762 12.871 16.4493 13.0758 16.3498 13.2482C16.2504 13.4205 16.0865 13.5463 15.8943 13.5979C15.7021 13.6494 15.4973 13.6225 15.325 13.523L14.5105 13.052C14.3664 12.9686 14.1986 12.9355 14.0336 12.9579C13.8687 12.9803 13.7158 13.0569 13.5992 13.1758C12.9316 13.8573 12.0906 14.3435 11.167 14.582C11.0057 14.6235 10.8629 14.7174 10.7609 14.849C10.6589 14.9806 10.6036 15.1423 10.6037 15.3088V16.2485C10.6037 16.4474 10.5247 16.6382 10.384 16.7789C10.2434 16.9195 10.0526 16.9985 9.85371 16.9985C9.6548 16.9985 9.46404 16.9195 9.32338 16.7789C9.18273 16.6382 9.10371 16.4474 9.10371 16.2485V15.3095C9.1038 15.1431 9.04849 14.9813 8.94652 14.8497C8.84454 14.7181 8.70169 14.6242 8.54046 14.5828C7.61672 14.3433 6.77596 13.856 6.10896 13.1735C5.99236 13.0547 5.83952 12.978 5.67453 12.9556C5.50954 12.9332 5.34179 12.9663 5.19771 13.0498L4.38471 13.52C4.29939 13.5701 4.20501 13.6027 4.10701 13.6161C4.00901 13.6295 3.90933 13.6234 3.8137 13.5981C3.71808 13.5728 3.6284 13.5289 3.54983 13.4688C3.47126 13.4087 3.40535 13.3337 3.35589 13.248C3.30643 13.1624 3.27441 13.0678 3.26166 12.9697C3.24891 12.8716 3.25569 12.772 3.28161 12.6765C3.30752 12.5811 3.35206 12.4917 3.41266 12.4135C3.47326 12.3353 3.54873 12.2699 3.63471 12.221L4.44771 11.7515C4.59168 11.6685 4.70397 11.5399 4.76696 11.3861C4.82995 11.2323 4.84006 11.062 4.79571 10.9018C4.54173 9.98149 4.54173 9.00958 4.79571 8.08929C4.83926 7.92945 4.82867 7.75969 4.76557 7.6065C4.70248 7.45332 4.59045 7.32534 4.44696 7.24253L3.63396 6.77304C3.46161 6.67358 3.33582 6.50973 3.28427 6.31753C3.23272 6.12532 3.25963 5.92052 3.35909 5.74816C3.45854 5.5758 3.6224 5.45001 3.8146 5.39846C4.0068 5.34691 4.21161 5.37383 4.38396 5.47329L5.19846 5.94429C5.34215 6.02792 5.50955 6.06144 5.67436 6.03959C5.83917 6.01773 5.99205 5.94173 6.10896 5.82353C6.77653 5.14204 7.61753 4.6558 8.54121 4.41728C8.70294 4.37571 8.84616 4.28135 8.94819 4.14916C9.05022 4.01697 9.10521 3.85452 9.10446 3.68754V2.74854C9.10446 2.54962 9.18348 2.35886 9.32413 2.2182C9.46479 2.07755 9.65555 1.99854 9.85446 1.99854C10.0534 1.99854 10.2441 2.07755 10.3848 2.2182C10.5254 2.35886 10.6045 2.54962 10.6045 2.74854V3.68754C10.6044 3.854 10.6597 4.01577 10.7617 4.14735C10.8636 4.27892 11.0065 4.37283 11.1677 4.41429C12.0917 4.65365 12.9328 5.14095 13.6 5.82353C13.7166 5.94239 13.8694 6.01905 14.0344 6.04146C14.1994 6.06387 14.3671 6.03073 14.5112 5.94729L15.3242 5.47704C15.4095 5.42701 15.5039 5.39436 15.6019 5.38096C15.6999 5.36756 15.7996 5.37368 15.8952 5.39896C15.9908 5.42424 16.0805 5.46819 16.1591 5.52827C16.2377 5.58835 16.3036 5.66338 16.353 5.74904C16.4025 5.8347 16.4345 5.92929 16.4473 6.02738C16.46 6.12546 16.4532 6.2251 16.4273 6.32055C16.4014 6.41601 16.3569 6.50539 16.2963 6.58357C16.2357 6.66174 16.1602 6.72715 16.0742 6.77604L15.2612 7.24554C15.118 7.32856 15.0063 7.45664 14.9435 7.60981C14.8807 7.76297 14.8703 7.93261 14.914 8.09229V8.09153Z" fill="#9194A0"/>
</g>
<defs>
<clipPath id="clip0_5_2138">
<rect width="18" height="18" fill="white" transform="translate(0.854492 0.498535)"/>
</clipPath>
</defs>
</svg>
