<svg width="19" height="19" viewBox="0 0 19 19" fill="none" xmlns="http://www.w3.org/2000/svg">
<g clip-path="url(#clip0_5_2120)">
<path d="M7.60449 18.73H1.60449C1.40558 18.73 1.21481 18.651 1.07416 18.5103C0.93351 18.3697 0.854492 18.1789 0.854492 17.98C0.854492 17.7811 0.93351 17.5903 1.07416 17.4496C1.21481 17.309 1.40558 17.23 1.60449 17.23H7.60449C7.80341 17.23 7.99417 17.309 8.13482 17.4496C8.27548 17.5903 8.35449 17.7811 8.35449 17.98C8.35449 18.1789 8.27548 18.3697 8.13482 18.5103C7.99417 18.651 7.80341 18.73 7.60449 18.73Z" fill="#9194A0"/>
<path d="M6.10449 15.73H1.60449C1.40558 15.73 1.21481 15.651 1.07416 15.5103C0.93351 15.3697 0.854492 15.1789 0.854492 14.98C0.854492 14.7811 0.93351 14.5903 1.07416 14.4496C1.21481 14.309 1.40558 14.23 1.60449 14.23H6.10449C6.3034 14.23 6.49417 14.309 6.63482 14.4496C6.77547 14.5903 6.85449 14.7811 6.85449 14.98C6.85449 15.1789 6.77547 15.3697 6.63482 15.5103C6.49417 15.651 6.3034 15.73 6.10449 15.73Z" fill="#9194A0"/>
<path d="M4.60449 12.73H1.60449C1.40558 12.73 1.21481 12.651 1.07416 12.5103C0.93351 12.3697 0.854492 12.1789 0.854492 11.98C0.854492 11.7811 0.93351 11.5903 1.07416 11.4497C1.21481 11.309 1.40558 11.23 1.60449 11.23H4.60449C4.8034 11.23 4.99417 11.309 5.13482 11.4497C5.27547 11.5903 5.35449 11.7811 5.35449 11.98C5.35449 12.1789 5.27547 12.3697 5.13482 12.5103C4.99417 12.651 4.8034 12.73 4.60449 12.73Z" fill="#9194A0"/>
<path d="M10.6045 18.6961C10.4056 18.705 10.2113 18.6345 10.0644 18.5001C9.91746 18.3657 9.82996 18.1784 9.8211 17.9795C9.81225 17.7806 9.88278 17.5863 10.0172 17.4394C10.1516 17.2925 10.3388 17.205 10.5377 17.1961C11.9571 17.0663 13.31 16.5347 14.4381 15.6636C15.5662 14.7925 16.4228 13.618 16.9074 12.2776C17.3921 10.9373 17.4848 9.48662 17.1747 8.09549C16.8646 6.70436 16.1645 5.4304 15.1564 4.42281C14.1484 3.41522 12.8741 2.71573 11.4828 2.40626C10.0915 2.09679 8.6409 2.19016 7.30078 2.67543C5.96066 3.1607 4.78656 4.01778 3.916 5.14628C3.04543 6.27478 2.51444 7.62798 2.38523 9.04738C2.36733 9.2455 2.27146 9.42839 2.11871 9.55582C1.96596 9.68325 1.76885 9.74478 1.57073 9.72688C1.37261 9.70898 1.18972 9.61311 1.06229 9.46036C0.93486 9.30761 0.873327 9.1105 0.891229 8.91238C1.1004 6.60486 2.19143 4.46691 3.93723 2.94356C5.68302 1.42021 7.94906 0.628832 10.2636 0.734167C12.5782 0.839503 14.763 1.83343 16.3632 3.50906C17.9634 5.18468 18.8558 7.4129 18.8545 9.72988C18.866 11.9786 18.0306 14.1493 16.5144 15.8101C14.9982 17.471 12.9125 18.5002 10.672 18.6931C10.6495 18.6954 10.6262 18.6961 10.6045 18.6961Z" fill="#9194A0"/>
<path d="M9.85449 5.22998C9.65558 5.22998 9.46481 5.309 9.32416 5.44965C9.18351 5.5903 9.10449 5.78107 9.10449 5.97998V9.72998C9.10453 9.92888 9.18358 10.1196 9.32424 10.2602L11.5742 12.5102C11.7157 12.6468 11.9051 12.7224 12.1018 12.7207C12.2984 12.719 12.4865 12.6402 12.6256 12.5011C12.7647 12.362 12.8435 12.1739 12.8452 11.9773C12.847 11.7806 12.7714 11.5912 12.6347 11.4497L10.6045 9.41948V5.97998C10.6045 5.78107 10.5255 5.5903 10.3848 5.44965C10.2442 5.309 10.0534 5.22998 9.85449 5.22998Z" fill="#9194A0"/>
</g>
<defs>
<clipPath id="clip0_5_2120">
<rect width="18" height="18" fill="white" transform="translate(0.854492 0.72998)"/>
</clipPath>
</defs>
</svg>
