<svg width="19" height="19" viewBox="0 0 19 19" fill="none" xmlns="http://www.w3.org/2000/svg">
<g clip-path="url(#clip0_5_2095)">
<path d="M9.85449 9.96143C10.7445 9.96143 11.6145 9.69751 12.3546 9.20304C13.0946 8.70857 13.6714 8.00577 14.012 7.1835C14.3525 6.36124 14.4417 5.45644 14.268 4.58352C14.0944 3.71061 13.6658 2.90878 13.0365 2.27945C12.4071 1.65011 11.6053 1.22153 10.7324 1.04789C9.85948 0.874261 8.95468 0.963376 8.13242 1.30397C7.31015 1.64456 6.60735 2.22134 6.11288 2.96136C5.61841 3.70138 5.35449 4.57141 5.35449 5.46143C5.35568 6.65454 5.83017 7.79844 6.67383 8.64209C7.51748 9.48575 8.66138 9.96024 9.85449 9.96143ZM9.85449 2.46143C10.4478 2.46143 11.0279 2.63737 11.5212 2.96702C12.0146 3.29666 12.3991 3.7652 12.6261 4.31338C12.8532 4.86156 12.9126 5.46476 12.7968 6.0467C12.6811 6.62864 12.3954 7.16319 11.9758 7.58275C11.5563 8.00231 11.0217 8.28803 10.4398 8.40378C9.85782 8.51954 9.25462 8.46013 8.70644 8.23307C8.15826 8.006 7.68973 7.62149 7.36008 7.12814C7.03044 6.63479 6.85449 6.05477 6.85449 5.46143C6.85449 4.66578 7.17056 3.90272 7.73317 3.34011C8.29578 2.7775 9.05884 2.46143 9.85449 2.46143Z" fill="#9194A0"/>
<path d="M9.85449 11.4614C8.06489 11.4634 6.34915 12.1752 5.08371 13.4406C3.81827 14.7061 3.10648 16.4218 3.10449 18.2114C3.10449 18.4103 3.18351 18.6011 3.32416 18.7418C3.46481 18.8824 3.65558 18.9614 3.85449 18.9614C4.0534 18.9614 4.24417 18.8824 4.38482 18.7418C4.52547 18.6011 4.60449 18.4103 4.60449 18.2114C4.60449 16.819 5.15762 15.4837 6.14218 14.4991C7.12675 13.5145 8.46211 12.9614 9.85449 12.9614C11.2469 12.9614 12.5822 13.5145 13.5668 14.4991C14.5514 15.4837 15.1045 16.819 15.1045 18.2114C15.1045 18.4103 15.1835 18.6011 15.3242 18.7418C15.4648 18.8824 15.6556 18.9614 15.8545 18.9614C16.0534 18.9614 16.2442 18.8824 16.3848 18.7418C16.5255 18.6011 16.6045 18.4103 16.6045 18.2114C16.6025 16.4218 15.8907 14.7061 14.6253 13.4406C13.3598 12.1752 11.6441 11.4634 9.85449 11.4614Z" fill="#9194A0"/>
</g>
<defs>
<clipPath id="clip0_5_2095">
<rect width="18" height="18" fill="white" transform="translate(0.854492 0.961426)"/>
</clipPath>
</defs>
</svg>
