<svg width="19" height="19" viewBox="0 0 19 19" fill="none" xmlns="http://www.w3.org/2000/svg">
<g clip-path="url(#clip0_5_2134)">
<path d="M12.1045 5.07568C12.1045 2.59393 10.0863 0.575684 7.60451 0.575684C5.12276 0.575684 3.10451 2.59393 3.10451 5.07568C3.10451 7.55743 5.12276 9.57568 7.60451 9.57568C10.0863 9.57568 12.1045 7.55743 12.1045 5.07568ZM7.60451 8.07568C5.95001 8.07568 4.60451 6.73018 4.60451 5.07568C4.60451 3.42118 5.95001 2.07568 7.60451 2.07568C9.25901 2.07568 10.6045 3.42118 10.6045 5.07568C10.6045 6.73018 9.25901 8.07568 7.60451 8.07568ZM7.59851 11.7792C7.64951 12.1902 7.35851 12.5644 6.94676 12.6162C4.32851 12.9432 2.35376 15.1819 2.35376 17.8257C2.35376 18.2397 2.01776 18.5757 1.60376 18.5757C1.18976 18.5757 0.85376 18.2397 0.85376 17.8257C0.85376 14.4274 3.39326 11.5482 6.76076 11.1282C7.16726 11.0764 7.54601 11.3682 7.59776 11.7799L7.59851 11.7792ZM17.8765 14.9254L17.146 14.5039C17.2705 14.1312 17.3545 13.7397 17.3545 13.3249C17.3545 12.9102 17.2713 12.5187 17.146 12.1459L17.8765 11.7244C18.235 11.5174 18.358 11.0584 18.151 10.6999C17.9433 10.3407 17.4858 10.2169 17.1265 10.4254L16.3968 10.8469C15.868 10.2514 15.1638 9.81568 14.3545 9.65143V8.82568C14.3545 8.41168 14.0185 8.07568 13.6045 8.07568C13.1905 8.07568 12.8545 8.41168 12.8545 8.82568V9.65143C12.0453 9.81643 11.341 10.2522 10.8123 10.8469L10.0825 10.4254C9.72251 10.2177 9.26501 10.3407 9.05801 10.6999C8.85101 11.0592 8.97401 11.5174 9.33251 11.7244L10.063 12.1459C9.93851 12.5187 9.85451 12.9102 9.85451 13.3249C9.85451 13.7397 9.93776 14.1312 10.063 14.5039L9.33251 14.9254C8.97401 15.1324 8.85101 15.5914 9.05801 15.9499C9.19751 16.1907 9.44876 16.3249 9.70826 16.3249C9.83501 16.3249 9.96401 16.2927 10.0825 16.2244L10.8123 15.8029C11.341 16.3984 12.0453 16.8342 12.8545 16.9984V17.8242C12.8545 18.2382 13.1905 18.5742 13.6045 18.5742C14.0185 18.5742 14.3545 18.2382 14.3545 17.8242V16.9984C15.1638 16.8334 15.868 16.3977 16.3968 15.8029L17.1265 16.2244C17.245 16.2927 17.374 16.3249 17.5008 16.3249C17.7603 16.3249 18.0123 16.1907 18.151 15.9499C18.358 15.5907 18.235 15.1324 17.8765 14.9254ZM13.6045 15.5749C12.364 15.5749 11.3545 14.5654 11.3545 13.3249C11.3545 12.0844 12.364 11.0749 13.6045 11.0749C14.845 11.0749 15.8545 12.0844 15.8545 13.3249C15.8545 14.5654 14.845 15.5749 13.6045 15.5749Z" fill="#9194A0"/>
</g>
<defs>
<clipPath id="clip0_5_2134">
<rect width="18" height="18" fill="white" transform="translate(0.854492 0.575684)"/>
</clipPath>
</defs>
</svg>
