<svg width="9" height="4" viewBox="0 0 9 4" fill="none" xmlns="http://www.w3.org/2000/svg">
<path d="M4.64122 2.7037C4.59088 2.75446 4.53098 2.79475 4.46499 2.82224C4.399 2.84973 4.32822 2.86389 4.25673 2.86389C4.18524 2.86389 4.11446 2.84973 4.04847 2.82224C3.98248 2.79475 3.92259 2.75446 3.87224 2.7037L1.39203 0.21807C1.34168 0.167313 1.28179 0.127026 1.2158 0.0995328C1.14981 0.0720398 1.07903 0.0578856 1.00754 0.0578856C0.936049 0.0578856 0.865268 0.0720398 0.799277 0.0995328C0.733286 0.127026 0.673392 0.167313 0.62305 0.21807C0.522189 0.319533 0.465576 0.456785 0.465576 0.59985C0.465576 0.742915 0.522189 0.880168 0.62305 0.981631L3.10868 3.46726C3.4133 3.7715 3.82621 3.94238 4.25673 3.94238C4.68725 3.94238 5.10017 3.7715 5.40478 3.46726L7.89041 0.98163C7.99046 0.880764 8.04686 0.744623 8.04746 0.602558C8.04787 0.531288 8.03421 0.460638 8.00726 0.394659C7.98031 0.32868 7.9406 0.26867 7.89041 0.218069C7.84007 0.167313 7.78018 0.127025 7.71419 0.0995325C7.6482 0.0720395 7.57742 0.0578853 7.50593 0.0578853C7.43444 0.0578853 7.36366 0.0720395 7.29767 0.0995325C7.23168 0.127025 7.17178 0.167313 7.12144 0.21807L4.64122 2.7037Z" fill="#181C32"/>
</svg>
