<svg width="19" height="19" viewBox="0 0 19 19" fill="none" xmlns="http://www.w3.org/2000/svg">
<g clip-path="url(#clip0_5_2100)">
<path d="M16.6045 5.38428H4.60449C3.96024 5.38428 3.35049 5.10528 2.92824 4.63503C3.34074 4.17453 3.93999 3.88428 4.60449 3.88428H18.1045C18.5192 3.88428 18.8545 3.54828 18.8545 3.13428C18.8545 2.72028 18.5192 2.38428 18.1045 2.38428H4.60449C2.53374 2.38428 0.854492 4.06353 0.854492 6.13428V13.6343C0.854492 15.705 2.53374 17.3843 4.60449 17.3843H16.6045C17.8472 17.3843 18.8545 16.377 18.8545 15.1343V7.63428C18.8545 6.39153 17.8472 5.38428 16.6045 5.38428ZM17.3545 15.1343C17.3545 15.5475 17.0185 15.8843 16.6045 15.8843H4.60449C3.36399 15.8843 2.35449 14.8748 2.35449 13.6343V6.13278C2.99499 6.61203 3.78249 6.88428 4.60449 6.88428H16.6045C17.0185 6.88428 17.3545 7.22103 17.3545 7.63428V15.1343ZM15.8545 11.3843C15.8545 11.7983 15.5185 12.1343 15.1045 12.1343C14.6905 12.1343 14.3545 11.7983 14.3545 11.3843C14.3545 10.9703 14.6905 10.6343 15.1045 10.6343C15.5185 10.6343 15.8545 10.9703 15.8545 11.3843Z" fill="#9194A0"/>
</g>
<defs>
<clipPath id="clip0_5_2100">
<rect width="18" height="18" fill="white" transform="translate(0.854492 0.884277)"/>
</clipPath>
</defs>
</svg>
